# xmcd
#
# Track frame offsets: 
#        150
#        18267
#        37223
#        55037
#        73493
#        93764
#        110218
#        127687
#        141383
#        155664
#        173196
#        186309
#        204377
#
# Disc length: 3016 seconds
#
# Revision: 0
# Processed by: cddbd v1.5.2PL0 Copyright (c) Steve Scherf et al.
# Submitted via: ExactAudioCopy v1.0b3
#
DISCID=be0bc60d
DTITLE=US Rails - Southern Canon
DYEAR=2012
DGENRE=Rock
TTITLE0=Heart Don't Lie
TTITLE1=Ring A Big Bell
TTITLE2=Live Like We Love
TTITLE3=Nightbird
TTITLE4=Carry Your Weight
TTITLE5=Do What You Love
TTITLE6=Same Old You (Same Old Me)
TTITLE7=Take A Long Time
TTITLE8=Don't Take Me Now
TTITLE9=18 and Lonely
TTITLE10=Heartbeat Away
TTITLE11=You're My Home
TTITLE12=Old Song On The Radio
EXTD=
EXTT0=
EXTT1=
EXTT2=
EXTT3=
EXTT4=
EXTT5=
EXTT6=
EXTT7=
EXTT8=
EXTT9=
EXTT10=
EXTT11=
EXTT12=
PLAYORDER=
